<svg xmlns="http://www.w3.org/2000/svg" viewBox="306.0 204.0 641.5 877.0"><path fill="#8f8f8f" fill-rule="evenodd" d="M328.92 1060.60C327.52 1060.48 327.03 1060.19 326.82 1059.34C326.29 1057.22 326.46 721.67 327.00 707.93C329.42 646.16 344.77 587.16 376.15 519.00C400.44 466.22 426.02 424.97 460.95 382.25C485.01 352.83 513.91 322.79 548.54 291.22C557.20 283.33 578.56 264.59 585.02 259.23C602.03 245.10 610.97 237.83 620.93 230.06L628.10 224.47L629.68 225.46C630.54 226.00 632.94 227.77 635.00 229.38C651.69 242.40 656.68 246.39 667.00 254.95C673.46 260.31 682.12 267.66 686.25 271.28C690.38 274.91 694.88 278.85 696.25 280.06C719.61 300.46 749.02 329.32 767.79 350.29C811.68 399.30 844.92 448.85 872.27 506.05C885.84 534.44 892.41 550.60 902.22 579.75C916.91 623.37 924.75 663.17 927.01 705.50C927.66 717.82 927.67 1058.96 927.01 1060.00C926.60 1060.66 922.27 1060.74 892.45 1060.66C868.25 1060.59 858.20 1060.40 857.81 1060.01C857.40 1059.60 857.22 1012.14 857.15 885.35C857.05 714.36 856.96 703.81 855.47 691.00C852.85 668.55 851.26 658.58 847.24 639.50C842.42 616.56 832.28 583.91 822.09 558.50C816.00 543.31 808.85 527.50 808.06 527.50C807.29 527.50 805.90 530.12 800.37 542.00C793.24 557.35 791.13 562.24 786.97 573.00C771.52 613.01 762.81 648.54 758.40 689.50L757.30 699.75L757.02 879.60C756.81 1022.84 756.62 1059.58 756.12 1060.08C755.32 1060.88 686.75 1061.05 685.68 1060.25C685.13 1059.83 684.99 1029.12 684.85 879.50C684.68 685.19 684.83 697.35 682.24 674.50C676.88 627.28 660.72 575.38 638.12 532.75C632.67 522.46 628.01 514.50 627.45 514.50C625.97 514.50 611.74 542.01 603.27 561.25C597.11 575.23 590.64 592.16 587.55 602.38C586.70 605.19 585.34 609.69 584.53 612.38C578.27 633.03 572.76 662.40 570.74 685.71C569.12 704.51 569.01 717.29 569.00 888.10C569.00 1024.31 568.87 1060.02 568.38 1060.32C567.56 1060.83 498.14 1060.81 497.64 1060.31C497.42 1060.09 497.12 977.53 496.97 876.83C496.67 679.62 496.85 693.19 494.25 672.22C492.68 659.56 488.70 639.17 484.92 624.50C476.99 593.66 467.14 567.33 451.78 535.84C448.33 528.77 447.01 526.83 446.20 527.63C445.52 528.31 435.93 549.92 432.39 558.75C418.70 592.92 408.73 627.08 403.07 659.25C401.46 668.38 399.76 680.72 398.76 690.50C397.03 707.45 397.01 709.20 397.00 886.00C396.99 994.32 396.81 1059.53 396.51 1060.00C396.10 1060.65 391.87 1060.75 363.39 1060.75C345.44 1060.75 329.93 1060.68 328.92 1060.60ZM538.05 548.96C550.76 521.26 562.28 499.85 583.19 465.09C586.39 459.78 589.00 455.14 589.00 454.77C589.00 452.98 566.40 422.70 550.03 402.56C545.48 396.96 541.34 391.84 540.83 391.19C540.33 390.54 539.62 390.00 539.26 390.00C537.95 390.00 518.33 414.06 504.20 433.00C496.11 443.83 487.29 456.32 486.51 458.04C485.97 459.22 486.32 460.00 490.77 467.54C505.85 493.08 519.59 521.21 530.98 549.90C532.47 553.64 533.87 556.46 534.18 556.36C534.49 556.25 536.23 552.93 538.05 548.96ZM723.90 551.12C733.65 525.69 750.93 490.05 765.81 464.65C767.29 462.12 768.50 459.51 768.50 458.85C768.50 456.97 749.74 430.75 736.42 414.00C730.12 406.08 717.27 390.72 716.58 390.30C715.83 389.84 715.22 390.54 701.66 407.50C689.57 422.62 669.33 449.55 667.59 452.82C667.08 453.78 667.77 455.04 673.69 464.07C684.22 480.14 695.34 499.21 702.44 513.37C705.84 520.16 712.80 535.57 717.52 546.75C720.86 554.67 721.37 555.64 722.01 555.24C722.23 555.11 723.08 553.25 723.90 551.12ZM633.56 391.12C636.39 387.62 640.06 383.06 641.72 381.00C646.88 374.58 661.41 357.16 667.08 350.59C670.06 347.14 672.50 344.17 672.50 343.99C672.50 343.01 630.61 303.90 628.17 302.59C627.40 302.18 626.72 302.51 624.43 304.42C619.48 308.55 604.80 322.25 586.12 340.15C584.13 342.07 582.50 343.82 582.50 344.06C582.50 344.30 584.81 347.14 587.62 350.37C600.35 364.97 609.37 375.77 619.27 388.25C625.98 396.71 627.31 398.17 627.97 397.77C628.22 397.61 630.74 394.62 633.56 391.12Z"/></svg>
